<svg width="160" height="161" viewBox="0 0 160 161" fill="none" xmlns="http://www.w3.org/2000/svg">
    <path d="M85.8522 66.5C77.8626 66.5 70.1575 69.3062 64.0214 74.4025L75.7892 86.2368C78.7536 84.1489 82.2055 83.0275 85.8508 83.0275C95.527 83.0275 103.4 90.8659 103.4 100.501C103.4 110.135 95.527 117.972 85.8508 117.972C76.1745 117.972 68.2998 110.134 68.2998 100.501C68.2998 96.8381 69.4486 93.315 71.6187 90.3178L71.8624 89.9803L58.2453 76.4319C51.7954 70.0259 43.2385 66.5 34.1492 66.5C15.3192 66.5 0 81.7514 0 100.499C0 119.247 15.3192 134.499 34.1492 134.499C42.1374 134.499 49.8411 131.692 55.9744 126.602L44.2051 114.766C41.2408 116.854 37.7917 117.972 34.1492 117.972C24.4702 117.972 16.5983 110.134 16.5983 100.501C16.5983 90.8673 24.4716 83.0275 34.1492 83.0275C43.8269 83.0275 51.7002 90.8659 51.7002 100.501C51.7002 104.166 50.5514 107.691 48.3771 110.691L48.1334 111.027L59.5552 122.397L61.7098 124.526C68.1668 130.956 76.7391 134.5 85.8508 134.5C104.681 134.5 120 119.247 120 100.501C120 81.7542 104.682 66.5 85.8522 66.5Z" fill="url(#paint0_radial_902_1208)"/>
    <path d="M128 88.5C127.534 88.5 127.134 88.1708 127.033 87.7165C123.663 72.6768 111.823 60.8371 96.7835 57.4674C96.3292 57.3656 96 56.9656 96 56.5C96 56.0344 96.3292 55.6344 96.7835 55.5326C111.823 52.1628 123.663 40.3232 127.033 25.2835C127.134 24.8292 127.534 24.5 128 24.5C128.466 24.5 128.866 24.8292 128.967 25.2835C132.337 40.3232 144.177 52.1628 159.216 55.5326C159.671 55.6344 160 56.0344 160 56.5C160 56.9656 159.671 57.3656 159.216 57.4674C144.177 60.8371 132.337 72.6768 128.967 87.7165C128.866 88.1708 128.466 88.5 128 88.5Z" fill="url(#paint1_radial_902_1208)"/>
    <path d="M86 48.5C85.7672 48.5 85.5672 48.3354 85.5163 48.1082C83.8314 40.5884 77.9116 34.6686 70.3918 32.9837C70.1646 32.9328 70 32.7328 70 32.5C70 32.2672 70.1646 32.0672 70.3918 32.0163C77.9116 30.3314 83.8314 24.4116 85.5163 16.8918C85.5672 16.6646 85.7672 16.5 86 16.5C86.2328 16.5 86.4328 16.6646 86.4837 16.8918C88.1686 24.4116 94.0884 30.3314 101.608 32.0163C101.835 32.0672 102 32.2672 102 32.5C102 32.7328 101.835 32.9328 101.608 32.9837C94.0884 34.6686 88.1686 40.5884 86.4837 48.1082C86.4328 48.3354 86.2328 48.5 86 48.5Z" fill="url(#paint2_radial_902_1208)"/>
    <defs>
    <radialGradient id="paint0_radial_902_1208" cx="0" cy="0" r="1" gradientUnits="userSpaceOnUse" gradientTransform="translate(165 -3) rotate(140.323) scale(228.674 184.623)">
    <stop stop-color="#FB3854"/>
    <stop offset="0.512822" stop-color="#6222A3"/>
    <stop offset="0.754364" stop-color="#6222A3"/>
    <stop offset="1" stop-color="#70EDFF"/>
    </radialGradient>
    <radialGradient id="paint1_radial_902_1208" cx="0" cy="0" r="1" gradientUnits="userSpaceOnUse" gradientTransform="translate(165 -3) rotate(140.323) scale(228.674 184.623)">
    <stop stop-color="#FB3854"/>
    <stop offset="0.512822" stop-color="#6222A3"/>
    <stop offset="0.754364" stop-color="#6222A3"/>
    <stop offset="1" stop-color="#70EDFF"/>
    </radialGradient>
    <radialGradient id="paint2_radial_902_1208" cx="0" cy="0" r="1" gradientUnits="userSpaceOnUse" gradientTransform="translate(165 -3) rotate(140.323) scale(228.674 184.623)">
    <stop stop-color="#FB3854"/>
    <stop offset="0.512822" stop-color="#6222A3"/>
    <stop offset="0.754364" stop-color="#6222A3"/>
    <stop offset="1" stop-color="#70EDFF"/>
    </radialGradient>
    </defs>
</svg>